<svg width="1200" height="520" viewBox="0 0 1200 520" fill="none" xmlns="http://www.w3.org/2000/svg" role="img" aria-labelledby="title desc">
  <title id="title">local-mgrep hero graphic</title>
  <desc id="desc">A polished dark hero graphic showing local semantic code search powered by Ollama, SQLite, hybrid ranking, and agent-ready output.</desc>
  <defs>
    <radialGradient id="glowA" cx="0" cy="0" r="1" gradientUnits="userSpaceOnUse" gradientTransform="translate(252 113) rotate(42) scale(620 350)">
      <stop stop-color="#37F7C4" stop-opacity="0.58"/>
      <stop offset="0.48" stop-color="#377DFF" stop-opacity="0.18"/>
      <stop offset="1" stop-color="#020617" stop-opacity="0"/>
    </radialGradient>
    <radialGradient id="glowB" cx="0" cy="0" r="1" gradientUnits="userSpaceOnUse" gradientTransform="translate(1030 442) rotate(-148) scale(560 300)">
      <stop stop-color="#F7C948" stop-opacity="0.38"/>
      <stop offset="0.52" stop-color="#37F7C4" stop-opacity="0.12"/>
      <stop offset="1" stop-color="#020617" stop-opacity="0"/>
    </radialGradient>
    <linearGradient id="card" x1="113" y1="80" x2="1058" y2="484" gradientUnits="userSpaceOnUse">
      <stop stop-color="#0F172A"/>
      <stop offset="1" stop-color="#030712"/>
    </linearGradient>
    <linearGradient id="stroke" x1="102" y1="55" x2="1099" y2="489" gradientUnits="userSpaceOnUse">
      <stop stop-color="#67E8F9" stop-opacity="0.76"/>
      <stop offset="0.42" stop-color="#34D399" stop-opacity="0.38"/>
      <stop offset="1" stop-color="#FDE68A" stop-opacity="0.42"/>
    </linearGradient>
    <filter id="shadow" x="45" y="38" width="1110" height="474" filterUnits="userSpaceOnUse" color-interpolation-filters="sRGB">
      <feDropShadow dx="0" dy="30" stdDeviation="34" flood-color="#000" flood-opacity="0.48"/>
    </filter>
  </defs>
  <rect width="1200" height="520" rx="38" fill="#020617"/>
  <rect width="1200" height="520" rx="38" fill="url(#glowA)"/>
  <rect width="1200" height="520" rx="38" fill="url(#glowB)"/>
  <g opacity="0.18">
    <path d="M0 96H1200M0 192H1200M0 288H1200M0 384H1200" stroke="#94A3B8"/>
    <path d="M120 0V520M240 0V520M360 0V520M480 0V520M600 0V520M720 0V520M840 0V520M960 0V520M1080 0V520" stroke="#94A3B8"/>
  </g>
  <rect x="70" y="58" width="1060" height="404" rx="34" fill="url(#card)" filter="url(#shadow)"/>
  <rect x="70.75" y="58.75" width="1058.5" height="402.5" rx="33.25" stroke="url(#stroke)" stroke-width="1.5"/>
  <g transform="translate(108 104)">
    <rect x="0" y="0" width="456" height="312" rx="22" fill="#020617" stroke="#1E293B"/>
    <rect x="0" y="0" width="456" height="48" rx="22" fill="#0B1120"/>
    <circle cx="28" cy="24" r="6" fill="#FB7185"/>
    <circle cx="50" cy="24" r="6" fill="#FBBF24"/>
    <circle cx="72" cy="24" r="6" fill="#34D399"/>
    <text x="104" y="30" fill="#94A3B8" font-family="ui-monospace, SFMono-Regular, Menlo, Consolas, monospace" font-size="13">terminal</text>
    <text x="28" y="86" fill="#E2E8F0" font-family="ui-monospace, SFMono-Regular, Menlo, Consolas, monospace" font-size="16">$ mgrep search <tspan fill="#67E8F9">"how are tokens refreshed?"</tspan></text>
    <text x="28" y="126" fill="#34D399" font-family="ui-monospace, SFMono-Regular, Menlo, Consolas, monospace" font-size="14">local_mgrep/src/cli.py:124-145</text>
    <text x="28" y="152" fill="#CBD5E1" font-family="ui-monospace, SFMono-Regular, Menlo, Consolas, monospace" font-size="14">agentic query decomposition → merged results</text>
    <text x="28" y="194" fill="#34D399" font-family="ui-monospace, SFMono-Regular, Menlo, Consolas, monospace" font-size="14">local_mgrep/src/storage.py:197-271</text>
    <text x="28" y="220" fill="#CBD5E1" font-family="ui-monospace, SFMono-Regular, Menlo, Consolas, monospace" font-size="14">semantic + lexical + diversified top-k</text>
    <rect x="28" y="254" width="166" height="32" rx="16" fill="#042F2E" stroke="#0F766E"/>
    <text x="48" y="275" fill="#99F6E4" font-family="ui-monospace, SFMono-Regular, Menlo, Consolas, monospace" font-size="13">100% local</text>
    <rect x="208" y="254" width="190" height="32" rx="16" fill="#172554" stroke="#2563EB"/>
    <text x="228" y="275" fill="#BFDBFE" font-family="ui-monospace, SFMono-Regular, Menlo, Consolas, monospace" font-size="13">agent-ready JSON</text>
  </g>
  <g transform="translate(620 104)">
    <text x="0" y="30" fill="#F8FAFC" font-family="Georgia, 'Times New Roman', serif" font-size="46" font-weight="700">local-mgrep</text>
    <text x="0" y="68" fill="#A7F3D0" font-family="ui-sans-serif, system-ui, -apple-system, BlinkMacSystemFont, 'Segoe UI', sans-serif" font-size="18" font-weight="700" letter-spacing="2.8">FREE LOCAL SEMANTIC CODE SEARCH</text>
    <text x="0" y="114" fill="#CBD5E1" font-family="ui-sans-serif, system-ui, -apple-system, BlinkMacSystemFont, 'Segoe UI', sans-serif" font-size="22">Describe what you need. Retrieve the right code.</text>
    <text x="0" y="146" fill="#CBD5E1" font-family="ui-sans-serif, system-ui, -apple-system, BlinkMacSystemFont, 'Segoe UI', sans-serif" font-size="22">No account. No API bill. No source upload.</text>
    <g transform="translate(0 194)">
      <rect width="154" height="92" rx="18" fill="#0B1120" stroke="#1E293B"/>
      <text x="22" y="36" fill="#F8FAFC" font-family="ui-sans-serif, system-ui" font-size="29" font-weight="800">30/30</text>
      <text x="22" y="64" fill="#94A3B8" font-family="ui-sans-serif, system-ui" font-size="13">top-k 10 recall</text>
    </g>
    <g transform="translate(176 194)">
      <rect width="154" height="92" rx="18" fill="#0B1120" stroke="#1E293B"/>
      <text x="22" y="36" fill="#F8FAFC" font-family="ui-sans-serif, system-ui" font-size="29" font-weight="800">2.00×</text>
      <text x="22" y="64" fill="#94A3B8" font-family="ui-sans-serif, system-ui" font-size="13">estimated tokens</text>
    </g>
    <g transform="translate(352 194)">
      <rect width="154" height="92" rx="18" fill="#0B1120" stroke="#1E293B"/>
      <text x="22" y="36" fill="#F8FAFC" font-family="ui-sans-serif, system-ui" font-size="29" font-weight="800">0</text>
      <text x="22" y="64" fill="#94A3B8" font-family="ui-sans-serif, system-ui" font-size="13">cloud calls</text>
    </g>
  </g>
</svg>
